<svg width="559" height="559" viewBox="0 0 559 559" fill="none" xmlns="http://www.w3.org/2000/svg">
<path d="M120.8 0.958862C82.1333 4.02553 58.1333 13.8922 36 36.1589C16.9333 55.3589 7.06667 75.4922 2.4 105.092C0.133333 118.959 0 132.826 0 279.492C0 426.159 0.133333 440.026 2.4 453.892C7.06667 483.492 16.9333 503.759 36 522.826C55.0667 541.892 75.3333 551.759 104.933 556.426C118.8 558.692 132.667 558.826 279.333 558.826C426 558.826 439.867 558.692 453.733 556.426C483.333 551.759 503.467 541.892 522.667 522.826C541.733 503.892 551.6 483.626 556.267 453.892C558.533 440.026 558.667 426.159 558.667 279.492C558.667 132.826 558.533 118.959 556.267 105.092C551.6 75.4922 541.733 55.2255 522.667 36.1589C504 17.4922 483.733 7.4922 455.067 2.6922C442.667 0.558866 426.667 0.292179 288 0.0255127C203.733 -0.107821 128.4 0.292196 120.8 0.958862ZM184 182.959C209.467 189.626 233.867 208.826 246 231.759L250.133 239.492L359.733 239.759L469.333 240.159L476.133 243.226C501.467 254.692 507.733 287.359 488.4 307.092C482.533 313.092 473.733 317.492 465.067 318.959C459.733 319.759 459.467 319.626 448.8 309.492L438 299.092L427.2 309.492C414.8 321.226 417.467 321.492 402.4 306.959L394.133 298.959L383.333 309.359C370.8 321.226 373.467 321.492 358.4 306.959L350 298.959L339.333 309.359C326.933 321.359 329.733 321.626 314.4 306.959L306 298.959L295.467 309.226L284.933 319.492H267.6H250.133L246 327.226C233.733 350.292 209.6 369.226 183.333 376.292C171.467 379.492 145.867 379.492 134 376.292C89.4667 364.292 59.3333 325.626 59.2 280.159C59.0667 229.359 94.1333 188.559 145.333 180.292C152.533 179.226 175.867 180.692 184 182.959Z" fill="#0066CB"/>
<path d="M104.666 254.426C92.933 260.559 86.533 273.759 89.733 285.759C96.6664 311.759 130.933 315.092 142.133 290.826C152.933 267.626 127.333 242.959 104.666 254.426Z" fill="#0066CB"/>
</svg>
